<svg version="1.2" xmlns="http://www.w3.org/2000/svg" viewBox="0 0 44 44" width="44" height="44">
	<defs>
		<clipPath clipPathUnits="userSpaceOnUse" id="cp1">
			<path d="m0 0h154.96v43.33h-154.96z"/>
		</clipPath>
	</defs>
	<style>
		.s0 { fill: #0a2847 } 
	</style>
	<g id="Groupe_84">
		<g id="Clip-Path: Groupe_83" clip-path="url(#cp1)">
			<g id="Groupe_83">
				<path id="Tracé_233" class="s0" d="m42.45 0h-41.58q-0.17 0-0.33 0.07-0.16 0.06-0.29 0.18-0.12 0.13-0.18 0.29-0.07 0.16-0.07 0.33v2.57q0 0.17 0.07 0.33 0.06 0.16 0.18 0.28 0.13 0.12 0.29 0.19 0.16 0.07 0.33 0.07h41.58q0.17 0 0.33-0.07 0.16-0.07 0.28-0.19 0.13-0.12 0.19-0.28 0.07-0.16 0.07-0.33v-2.57q0-0.17-0.07-0.33-0.06-0.16-0.19-0.29-0.12-0.12-0.28-0.18-0.16-0.07-0.33-0.07z"/>
				<path id="Tracé_234" class="s0" d="m42.45 7.95h-17.99q-0.17 0-0.33 0.07-0.16 0.06-0.28 0.18-0.12 0.13-0.19 0.29-0.06 0.16-0.06 0.33v30.4h-3.88v-30.4q0-0.17-0.07-0.33-0.06-0.16-0.18-0.29-0.13-0.12-0.28-0.18-0.16-0.07-0.34-0.07h-17.98q-0.17 0-0.33 0.07-0.16 0.06-0.29 0.18-0.12 0.13-0.18 0.29-0.07 0.16-0.07 0.33v33.64q0 0.17 0.07 0.33 0.06 0.16 0.18 0.28 0.13 0.12 0.29 0.19 0.16 0.07 0.33 0.07h10.06q0.17 0 0.33-0.07 0.16-0.07 0.28-0.19 0.13-0.12 0.19-0.28 0.07-0.16 0.07-0.33v-25.83q0-0.17-0.07-0.33-0.06-0.16-0.19-0.28-0.12-0.12-0.28-0.19-0.16-0.07-0.33-0.07h-2.37q-0.17 0-0.33 0.07-0.16 0.07-0.28 0.19-0.12 0.12-0.19 0.28-0.06 0.16-0.07 0.33v22.59h-3.59v-26.3h11.52v29.54q0 0.17 0.07 0.33 0.06 0.16 0.18 0.28 0.13 0.12 0.28 0.19 0.16 0.07 0.34 0.07h10.34q0.17 0 0.33-0.07 0.16-0.07 0.28-0.19 0.13-0.12 0.19-0.28 0.07-0.16 0.07-0.33v-29.54h11.52v26.3h-3.6v-22.59q0-0.17-0.06-0.33-0.07-0.16-0.19-0.28-0.12-0.12-0.28-0.19-0.16-0.07-0.34-0.07h-2.36q-0.17 0-0.33 0.07-0.16 0.07-0.29 0.19-0.12 0.12-0.18 0.28-0.07 0.16-0.07 0.33v25.83q0 0.17 0.07 0.33 0.06 0.16 0.19 0.28 0.12 0.12 0.28 0.19 0.16 0.07 0.33 0.07h10.06q0.17 0 0.33-0.07 0.16-0.07 0.28-0.19 0.13-0.12 0.19-0.28 0.07-0.16 0.07-0.33v-33.64q0-0.17-0.07-0.33-0.06-0.16-0.19-0.29-0.12-0.12-0.28-0.18-0.16-0.07-0.33-0.07z"/>
			</g>
		</g>
	</g>
</svg>