<svg xmlns="http://www.w3.org/2000/svg" xmlns:xlink="http://www.w3.org/1999/xlink" width="154.96" height="43.326" viewBox="0 0 154.96 43.326">
  <defs>
    <clipPath id="clip-path">
      <rect id="Rectangle_48" data-name="Rectangle 48" width="154.96" height="43.326" transform="translate(0 0)" fill="none"/>
    </clipPath>
  </defs>
  <g id="Groupe_84" data-name="Groupe 84" transform="translate(0 0)">
    <g id="Groupe_83" data-name="Groupe 83" clip-path="url(#clip-path)">
      <path id="Tracé_233" data-name="Tracé 233" d="M42.45,0H.868A.868.868,0,0,0,0,.868v2.57a.868.868,0,0,0,.868.868H42.45a.868.868,0,0,0,.868-.868V.868A.868.868,0,0,0,42.45,0" fill="#0a2847"/>
      <path id="Tracé_234" data-name="Tracé 234" d="M42.45,7.95H24.465a.868.868,0,0,0-.868.868V39.224H19.721V8.818a.868.868,0,0,0-.868-.868H.868A.868.868,0,0,0,0,8.818V42.459a.868.868,0,0,0,.868.868H10.93a.868.868,0,0,0,.868-.868V16.632a.868.868,0,0,0-.868-.868H8.563a.868.868,0,0,0-.868.868V39.224H4.1V12.918H15.619V42.459a.868.868,0,0,0,.868.868H26.831a.868.868,0,0,0,.868-.868V12.918H39.216V39.224H35.623V16.632a.868.868,0,0,0-.868-.868H32.389a.867.867,0,0,0-.868.868V42.459a.868.868,0,0,0,.868.868H42.45a.868.868,0,0,0,.868-.868V8.818a.868.868,0,0,0-.868-.868" fill="#0a2847"/>
      <path id="Tracé_235" data-name="Tracé 235" d="M56.864,16.715l3.313,8.725h4.2l3.312-8.725v10.6h5.578V7.962H66.5L62.276,18.068,58.051,7.962H51.286V27.318h5.578Z" fill="#0a2847"/>
      <path id="Tracé_236" data-name="Tracé 236" d="M82.44,22.293h2.4l2.319,5.025H94.4l-3.811-6.3a6.724,6.724,0,0,0,3.065-6.129c0-4.418-3.011-6.931-8.256-6.931h-9.36V27.318h6.4Zm0-9.471h2.955a2.028,2.028,0,0,1,2.181,2.264,2.067,2.067,0,0,1-2.181,2.347H82.44Z" fill="#0a2847"/>
      <path id="Tracé_237" data-name="Tracé 237" d="M105.587,27.594a17.075,17.075,0,0,0,8.476-2.485V17.127H106.3v3.622h2.271v.881a7.43,7.43,0,0,1-2.541.635,4.349,4.349,0,0,1-4.362-4.611,4.306,4.306,0,0,1,4.306-4.556,7.365,7.365,0,0,1,4.778,2.043l3.616-4.39A13.313,13.313,0,0,0,106,7.768c-6.323,0-10.907,4.17-10.907,9.886,0,5.743,4.418,9.94,10.493,9.94" fill="#0a2847"/>
      <path id="Tracé_238" data-name="Tracé 238" d="M59.657,38.956A3.691,3.691,0,0,1,57.2,40.191a2.3,2.3,0,0,1-2.238-2.5A2.282,2.282,0,0,1,57.2,35.22a3.328,3.328,0,0,1,2.456,1.451l2.068-2.455a6.505,6.505,0,0,0-4.57-1.977c-3.4,0-5.868,2.317-5.868,5.5a5.481,5.481,0,0,0,5.729,5.59,6.713,6.713,0,0,0,4.709-2.162Z" fill="#0a2847"/>
      <path id="Tracé_239" data-name="Tracé 239" d="M73.65,37.752c0-3.2-2.5-5.512-5.945-5.512s-5.945,2.3-5.945,5.512c0,3.228,2.5,5.574,5.945,5.574s5.945-2.362,5.945-5.574m-5.9,2.594a2.449,2.449,0,0,1-2.315-2.578,2.411,2.411,0,0,1,2.315-2.548,2.352,2.352,0,0,1,2.224,2.548,2.38,2.38,0,0,1-2.224,2.578" fill="#0a2847"/>
      <path id="Tracé_240" data-name="Tracé 240" d="M81.93,38.061,77.653,32.5h-3V43.327h3.257V37.8l4.262,5.529h3V32.5H81.93Z" fill="#0a2847"/>
      <path id="Tracé_241" data-name="Tracé 241" d="M91.106,34.972a9.949,9.949,0,0,1,3.722,1.267l1.3-2.718a9.219,9.219,0,0,0-4.709-1.282c-2.811,0-4.633,1.359-4.633,3.521,0,3.8,5.605,2.872,5.605,4.277,0,.386-.34.556-.865.556A7.9,7.9,0,0,1,87.4,38.91L86.073,41.6a9.358,9.358,0,0,0,5.42,1.729c2.439,0,4.554-1.065,4.554-3.474,0-3.922-5.6-3.073-5.6-4.432,0-.324.263-.448.664-.448" fill="#0a2847"/>
      <path id="Tracé_242" data-name="Tracé 242" d="M107.215,38.586V32.347h-3.582v6.239a1.594,1.594,0,0,1-1.56,1.76,1.675,1.675,0,0,1-1.668-1.76V32.347H96.823v6.239c0,2.872,2.084,4.74,5.235,4.74,3.135,0,5.157-1.868,5.157-4.74" fill="#0a2847"/>
      <path id="Tracé_243" data-name="Tracé 243" d="M108.609,32.5V43.327H116.7V40.346h-4.509V32.5Z" fill="#0a2847"/>
      <path id="Tracé_244" data-name="Tracé 244" d="M116.934,35.327h3.073v8h3.582v-8h3.089V32.5h-9.744Z" fill="#0a2847"/>
      <rect id="Rectangle_47" data-name="Rectangle 47" width="3.582" height="10.825" transform="translate(127.531 32.501)" fill="#0a2847"/>
      <path id="Tracé_245" data-name="Tracé 245" d="M139.932,38.061,135.655,32.5h-3V43.327h3.257V37.8l4.262,5.529h3V32.5h-3.243Z" fill="#0a2847"/>
      <path id="Tracé_246" data-name="Tracé 246" d="M150.447,39.5h1.27v.493a4.156,4.156,0,0,1-1.422.355,2.569,2.569,0,0,1-.031-5.129,4.12,4.12,0,0,1,2.673,1.143L154.96,33.9a7.453,7.453,0,0,0-4.681-1.668c-3.537,0-6.1,2.333-6.1,5.53a5.541,5.541,0,0,0,5.87,5.562,9.548,9.548,0,0,0,4.742-1.391V37.472h-4.343Z" fill="#0a2847"/>
    </g>
  </g>
</svg>
